<?xml version="1.0" standalone="no"?>
<!DOCTYPE svg PUBLIC "-//W3C//DTD SVG 20010904//EN"
 "http://www.w3.org/TR/2001/REC-SVG-20010904/DTD/svg10.dtd">
<svg version="1.0" xmlns="http://www.w3.org/2000/svg"
 width="700.000000pt" height="700.000000pt" viewBox="0 0 700.000000 700.000000"
 preserveAspectRatio="xMidYMid meet">
<metadata>
Created by potrace 1.11, written by Peter Selinger 2001-2013
</metadata>
<g transform="translate(0.000000,700.000000) scale(0.100000,-0.100000)"
fill="#000000" stroke="none">
<path d="M3289 6926 c-2 -2 -42 -6 -89 -10 -47 -3 -94 -8 -105 -10 -11 -2 -47
-7 -80 -11 -32 -4 -68 -9 -80 -11 -11 -2 -45 -9 -75 -15 -30 -5 -66 -12 -80
-15 -153 -29 -458 -124 -615 -193 -216 -93 -449 -223 -623 -345 -189 -132
-466 -376 -597 -527 -191 -218 -309 -386 -448 -632 -37 -65 -67 -120 -67 -122
0 -2 -20 -46 -44 -97 -58 -125 -155 -378 -170 -443 -2 -5 -8 -30 -15 -55 -7
-25 -15 -52 -17 -60 -41 -162 -60 -258 -88 -450 -29 -197 -29 -628 0 -855 129
-1007 684 -1894 1534 -2450 153 -100 362 -213 500 -269 36 -15 79 -33 95 -41
49 -22 323 -112 410 -135 292 -76 530 -105 865 -105 250 0 360 9 583 45 302
50 658 166 938 306 131 66 341 189 414 243 28 20 63 45 79 55 40 26 232 181
290 235 399 375 640 716 860 1216 7 17 18 41 24 55 6 14 32 86 57 160 80 236
142 513 161 715 3 28 7 61 11 75 9 39 12 448 3 520 -4 36 -11 92 -14 125 -10
105 -18 155 -46 295 -27 137 -25 125 -50 220 -79 294 -203 598 -345 845 -56
98 -205 325 -245 375 -11 14 -41 52 -67 85 -78 98 -111 133 -258 280 -166 166
-190 187 -360 314 -435 326 -893 527 -1450 636 -17 3 -79 12 -140 21 -60 8
-123 17 -140 20 -34 6 -510 16 -516 10z m491 -710 c123 -15 168 -22 273 -43
l77 -16 0 -945 0 -945 -207 210 c-115 116 -398 403 -630 637 l-423 426 0 309
0 309 48 7 c26 5 52 9 57 11 23 5 205 34 265 43 65 9 455 6 540 -3z m-1610
-1058 l0 -723 -389 395 c-367 372 -388 395 -375 415 66 94 318 337 464 446 76
57 284 189 297 189 2 0 3 -325 3 -722z m2825 624 c64 -41 203 -139 215 -152 3
-3 32 -28 65 -55 91 -77 249 -239 336 -348 204 -253 357 -528 460 -825 58
-169 109 -371 125 -492 2 -19 6 -44 8 -55 27 -123 27 -571 1 -707 -3 -13 -7
-45 -11 -73 -3 -27 -7 -52 -9 -55 -2 -3 -6 -26 -10 -50 -3 -25 -8 -53 -11 -62
-3 -9 -6 -25 -8 -35 -23 -115 -86 -310 -137 -422 l-29 -64 -247 251 c-137 138
-398 402 -580 586 l-333 334 0 1162 0 1162 48 -28 c26 -15 79 -47 117 -72z
m-3122 -2040 l297 -299 -2 -1162 -3 -1162 -103 63 c-88 54 -241 161 -276 193
-6 6 -38 33 -71 60 -204 172 -448 469 -581 710 -15 28 -36 65 -46 84 -81 145
-219 514 -243 653 -3 15 -12 56 -19 90 -8 35 -18 88 -21 118 -4 30 -8 57 -10
60 -2 3 -7 43 -11 90 -15 153 -9 478 10 600 3 14 7 45 10 70 28 212 114 517
188 664 l20 38 281 -286 c155 -157 416 -420 580 -584z m2023 -232 l234 -236 0
-409 -1 -410 -375 380 c-206 209 -490 495 -630 636 l-254 255 0 410 1 409 395
-400 c217 -220 501 -506 630 -635z m-140 -1672 l374 -378 0 -309 0 -308 -37
-6 c-21 -3 -49 -8 -63 -11 -39 -9 -131 -25 -170 -30 -19 -3 -62 -9 -95 -13
-75 -10 -399 -10 -520 0 -74 6 -249 31 -290 41 -5 2 -27 6 -47 11 l-38 7 0
946 0 946 256 -260 c141 -142 424 -429 630 -636z m1831 -92 c-37 -52 -308
-321 -382 -379 -100 -78 -231 -168 -308 -211 l-67 -38 0 724 0 723 390 -394
389 -395 -22 -30z"/>
</g>
</svg>
