<svg xmlns="http://www.w3.org/2000/svg" viewBox="0, 0, 100, 100">
  <g id="chh-seal" fill="#000000">
    <path d="M52.521,1.064 C78.711,2.845 98.341,23.925 99,50 C99,77.061 77.061,99 50,99 C22.938,99 1,77.061 1,50 C1,22.938 22.938,1 50,1 L52.521,1.064 z M41,60.963 L41,87.925 C43.939,88.718 46.973,88.923 50,89 C53.048,89.088 56.032,88.532 59,87.925 L59,79.156 L41,60.963 z M14.42,34.098 C12.046,39.082 11.139,44.524 11,50 C11.096,63.945 18.655,77.313 31,84.018 L31,50.856 L14.42,34.098 z M69,63.362 L69,84.018 C73.353,81.737 77.056,78.418 80.167,74.649 L69,63.362 z M69,15.982 L69,49.144 L85.579,65.902 C87.954,60.918 88.861,55.476 89,50 C88.904,36.055 81.345,22.688 69,15.982 z M41,35.062 L41,46.745 L59,64.938 L59,53.255 L41,35.062 z M50,11 L50,11 C46.951,10.912 43.967,11.468 41,12.075 L41,20.843 L59,39.037 L59,12.075 C56.061,11.282 53.027,11.076 50,11 z M31,15.982 C26.647,18.263 22.943,21.581 19.833,25.351 L31,36.637 L31,15.982 z" />
  </g>
</svg>
