<svg xmlns="http://www.w3.org/2000/svg" viewBox="0, 0, 32, 32">
  <g id="email" fill="#000000">
    <path d="M8,4.506 C8,4.229 8.229,4 8.506,4 L23.506,4 C23.783,4 24,4.229 24,4.506 L24,17.036 L26,15.422 L26,4 C26,2.892 25.108,2 24,2 L8,2 C6.892,2 6,2.892 6,4 L6,15.422 L8,17.036 L8,4.506 z"/>
    <path d="M17.53,8.012 C17.133,7.952 16.759,7.916 16.422,7.916 C15.578,7.916 14.892,8.169 14.373,8.675 C13.855,9.181 13.59,9.843 13.59,10.663 C13.59,11.386 13.795,11.952 14.193,12.373 C14.59,12.795 15.145,13 15.831,13 C16.482,13 17.024,12.747 17.446,12.241 L17.53,12.241 C17.627,12.458 17.795,12.639 18.012,12.783 C18.241,12.916 18.494,12.988 18.783,12.988 C19.217,12.988 19.602,12.855 19.928,12.59 C20.253,12.325 20.506,11.964 20.687,11.494 C20.867,11.024 20.952,10.518 20.952,9.952 C20.952,9.108 20.759,8.361 20.398,7.711 C20.024,7.072 19.506,6.566 18.831,6.217 C18.157,5.867 17.386,5.687 16.53,5.687 C15.518,5.687 14.614,5.916 13.831,6.361 C13.048,6.807 12.446,7.434 12.024,8.217 C11.602,9 11.386,9.88 11.386,10.843 C11.386,12.229 11.795,13.313 12.627,14.096 C13.458,14.88 14.614,15.265 16.096,15.265 C17.12,15.265 18.048,15.084 18.88,14.735 L18.88,13.614 C18.398,13.783 17.904,13.916 17.41,14.012 C16.916,14.096 16.458,14.145 16.048,14.145 C14.952,14.145 14.12,13.855 13.542,13.277 C12.964,12.699 12.675,11.867 12.675,10.795 C12.675,9.988 12.831,9.289 13.145,8.675 C13.458,8.072 13.904,7.602 14.482,7.277 C15.072,6.952 15.759,6.795 16.542,6.795 C17.157,6.795 17.699,6.928 18.169,7.181 C18.651,7.434 19.012,7.807 19.277,8.289 C19.542,8.771 19.675,9.325 19.675,9.952 C19.675,10.542 19.602,11.024 19.458,11.386 C19.301,11.747 19.108,11.928 18.855,11.928 C18.566,11.928 18.41,11.651 18.398,11.108 L18.53,8.241 C18.265,8.157 17.94,8.072 17.53,8.012 z M17.12,10.361 C17.072,10.916 16.964,11.313 16.783,11.566 C16.59,11.819 16.325,11.94 15.976,11.94 C15.301,11.94 14.964,11.518 14.964,10.699 C14.964,10.169 15.096,9.747 15.373,9.446 C15.639,9.145 16.024,8.988 16.518,9.012 C16.771,9.012 16.988,9.024 17.193,9.072 L17.12,10.361 z"/>
    <path d="M30.976,26 L30.976,15 C30.976,14.06 30.53,13.169 29.771,12.602 L26.976,10.506 L26.976,13.41 L28.434,14.53 C28.578,14.651 28.675,14.819 28.675,15 L22.12,20.217 L25.976,23.518 C26.157,23.663 26.253,23.892 26.253,24.12 C26.253,24.313 26.181,24.494 26.06,24.639 C25.916,24.819 25.687,24.916 25.458,24.916 C25.265,24.916 25.084,24.843 24.94,24.723 L17.94,18.723 C17.373,18.241 16.687,18 15.988,18 C15.289,18 14.602,18.241 14.036,18.723 L7.036,24.723 C6.892,24.843 6.711,24.916 6.518,24.916 C6.289,24.916 6.072,24.819 5.916,24.639 C5.795,24.494 5.723,24.313 5.723,24.12 C5.723,23.892 5.819,23.675 6,23.518 L9.855,20.217 L3.301,15 C3.313,14.807 3.398,14.639 3.542,14.53 L5,13.41 L5,10.506 L2.205,12.602 C1.446,13.169 1,14.06 1,15 L1,26 C1,27.651 2.337,29 4,29 L28,29 C29.651,29 31,27.651 31,26 L30.976,26 z"/>
  </g>
</svg>
