<?xml version="1.0" encoding="utf-8"?>
<!-- Generator: Adobe Illustrator 21.0.2, SVG Export Plug-In . SVG Version: 6.00 Build 0)  -->
<svg version="1.1" id="Layer_1" xmlns="http://www.w3.org/2000/svg" xmlns:xlink="http://www.w3.org/1999/xlink" x="0px" y="0px"
	 viewBox="0 0 300 300" style="enable-background:new 0 0 300 300;" xml:space="preserve">
<g>
	<path d="M84.6,53.4c0-2.3,1.9-4.2,4.2-4.2h124.5c2.3,0,4.1,1.9,4.1,4.2v104L234,144V49.2c0-9.2-7.4-16.6-16.6-16.6H84.6
		C75.4,32.6,68,40,68,49.2V144l16.6,13.4V53.4z"/>
	<path d="M163.7,82.5c-3.3-0.5-6.4-0.8-9.2-0.8c-7,0-12.7,2.1-17,6.3s-6.5,9.7-6.5,16.5c0,6,1.7,10.7,5,14.2s7.9,5.2,13.6,5.2
		c5.4,0,9.9-2.1,13.4-6.3h0.7c0.8,1.8,2.2,3.3,4,4.5c1.9,1.1,4,1.7,6.4,1.7c3.6,0,6.8-1.1,9.5-3.3c2.7-2.2,4.8-5.2,6.3-9.1
		c1.5-3.9,2.2-8.1,2.2-12.8c0-7-1.6-13.2-4.6-18.6c-3.1-5.3-7.4-9.5-13-12.4c-5.6-2.9-12-4.4-19.1-4.4c-8.4,0-15.9,1.9-22.4,5.6
		s-11.5,8.9-15,15.4s-5.3,13.8-5.3,21.8c0,11.5,3.4,20.5,10.3,27s16.5,9.7,28.8,9.7c8.5,0,16.2-1.5,23.1-4.4V129
		c-4,1.4-8.1,2.5-12.2,3.3c-4.1,0.7-7.9,1.1-11.3,1.1c-9.1,0-16-2.4-20.8-7.2c-4.8-4.8-7.2-11.7-7.2-20.6c0-6.7,1.3-12.5,3.9-17.6
		c2.6-5,6.3-8.9,11.1-11.6c4.9-2.7,10.6-4,17.1-4c5.1,0,9.6,1.1,13.5,3.2c4,2.1,7,5.2,9.2,9.2s3.3,8.6,3.3,13.8
		c0,4.9-0.6,8.9-1.8,11.9c-1.3,3-2.9,4.5-5,4.5c-2.4,0-3.7-2.3-3.8-6.8l1.1-23.8C169.8,83.7,167.1,83,163.7,82.5z M160.3,102
		c-0.4,4.6-1.3,7.9-2.8,10c-1.6,2.1-3.8,3.1-6.7,3.1c-5.6,0-8.4-3.5-8.4-10.3c0-4.4,1.1-7.9,3.4-10.4c2.2-2.5,5.4-3.8,9.5-3.6
		c2.1,0,3.9,0.1,5.6,0.5L160.3,102z"/>
	<path d="M275.3,231.8v-91.3c0-7.8-3.7-15.2-10-19.9l-23.2-17.4v24.1l12.1,9.3c1.2,1,2,2.4,2,3.9l-54.4,43.3l32,27.4
		c1.5,1.2,2.3,3.1,2.3,5c0,1.6-0.6,3.1-1.6,4.3c-1.2,1.5-3.1,2.3-5,2.3c-1.6,0-3.1-0.6-4.3-1.6l-58.1-49.8c-4.7-4-10.4-6-16.2-6
		c-5.8,0-11.5,2-16.2,6l-58.1,49.8c-1.2,1-2.7,1.6-4.3,1.6c-1.9,0-3.7-0.8-5-2.3c-1-1.2-1.6-2.7-1.6-4.3c0-1.9,0.8-3.7,2.3-5
		l32-27.4l-54.4-43.3c0.1-1.6,0.8-3,2-3.9l12.1-9.3v-24.1l-23.2,17.4c-6.3,4.7-10,12.1-10,19.9v91.3c0,13.7,11.1,24.9,24.9,24.9
		h199.2c13.7,0,24.9-11.2,24.9-24.9H275.3z"/>
</g>
</svg>
