<svg xmlns="http://www.w3.org/2000/svg" viewBox="0, 0, 32, 32">
  <g id="github" fill="#000000">
    <path d="M15.999,1 C7.716,1 1,7.716 1,16 C1,22.628 5.298,28.249 11.258,30.234 C12.009,30.371 12.282,29.908 12.282,29.51 C12.282,29.155 12.269,28.211 12.262,26.959 C8.09,27.865 7.209,24.948 7.209,24.948 C6.527,23.216 5.543,22.755 5.543,22.755 C4.181,21.824 5.647,21.842 5.647,21.842 C7.152,21.949 7.944,23.388 7.944,23.388 C9.282,25.68 11.455,25.018 12.31,24.635 C12.446,23.666 12.833,23.004 13.262,22.63 C9.931,22.251 6.429,20.964 6.429,15.216 C6.429,13.579 7.014,12.24 7.974,11.191 C7.819,10.812 7.304,9.287 8.12,7.221 C8.12,7.221 9.38,6.818 12.245,8.759 C13.441,8.427 14.725,8.26 16,8.254 C17.274,8.26 18.558,8.427 19.756,8.759 C22.619,6.818 23.876,7.221 23.876,7.221 C24.695,9.287 24.18,10.812 24.026,11.191 C24.987,12.24 25.568,13.579 25.568,15.216 C25.568,20.979 22.06,22.247 18.719,22.618 C19.257,23.081 19.737,23.996 19.737,25.396 C19.737,27.4 19.719,29.018 19.719,29.51 C19.719,29.912 19.989,30.378 20.75,30.232 C26.706,28.244 31,22.626 31,16 C31,7.716 24.283,1 15.999,1"/>
  </g>
</svg>
