<?xml version="1.0" encoding="UTF-8"?>
<!DOCTYPE svg PUBLIC "-//W3C//DTD SVG 1.1//EN" "http://www.w3.org/Graphics/SVG/1.1/DTD/svg11.dtd">
<svg version="1.1" xmlns="http://www.w3.org/2000/svg" xmlns:xlink="http://www.w3.org/1999/xlink" x="0" y="0" width="32" height="32" viewBox="0, 0, 32, 32">
  <g id="Layer_1">
    <path d="M15.709,-0.775 C6.714,-0.775 -0.579,6.518 -0.579,15.515 C-0.579,22.712 4.088,28.817 10.561,30.972 C11.376,31.121 11.673,30.618 11.673,30.186 C11.673,29.8 11.659,28.775 11.651,27.416 C7.12,28.4 6.164,25.232 6.164,25.232 C5.423,23.351 4.355,22.85 4.355,22.85 C2.876,21.839 4.467,21.859 4.467,21.859 C6.102,21.975 6.962,23.538 6.962,23.538 C8.415,26.027 10.775,25.308 11.703,24.892 C11.851,23.839 12.271,23.121 12.737,22.714 C9.12,22.303 5.317,20.905 5.317,14.663 C5.317,12.885 5.952,11.431 6.994,10.292 C6.826,9.88 6.267,8.224 7.153,5.981 C7.153,5.981 8.521,5.543 11.633,7.651 C12.932,7.29 14.326,7.109 15.711,7.103 C17.094,7.109 18.488,7.29 19.789,7.651 C22.899,5.543 24.264,5.981 24.264,5.981 C25.153,8.224 24.594,9.88 24.426,10.292 C25.47,11.431 26.101,12.885 26.101,14.663 C26.101,20.921 22.292,22.298 18.663,22.701 C19.248,23.204 19.769,24.198 19.769,25.718 C19.769,27.895 19.749,29.652 19.749,30.186 C19.749,30.622 20.042,31.129 20.869,30.97 C27.337,28.811 32,22.71 32,15.515 C32,6.518 24.706,-0.775 15.709,-0.775" fill="#161514"/>
  </g>
</svg>
