<svg xmlns="http://www.w3.org/2000/svg" viewBox="0, 0, 32, 32">
  <g id="linkedin" fill="#000000">
    <path d="M26.568,26.568 L22.059,26.568 L22.059,18.742 C22.059,16.434 21.077,15.721 19.811,15.721 C18.473,15.721 17.161,16.729 17.161,18.8 L17.161,26.568 L12.651,26.568 L12.651,12.24 L16.988,12.24 L16.988,14.225 L17.046,14.225 C17.482,13.343 19.005,11.837 21.332,11.837 C23.849,11.837 26.568,13.33 26.568,17.706 L26.568,26.568 z M7.686,10.244 C6.25,10.244 5.086,9.151 5.086,7.655 C5.086,6.159 6.25,5.065 7.686,5.065 C9.122,5.065 10.287,6.159 10.287,7.655 C10.287,9.151 9.122,10.244 7.686,10.244 z M5.432,12.229 L9.942,12.229 L9.942,26.557 L5.432,26.557 z M28.785,1 L3.215,1 C1.991,1 1,1.991 1,3.215 L1,28.785 C1,30.008 1.991,30.999 3.215,30.999 L28.785,30.999 C30.009,30.999 31,30.008 31,28.785 L31,3.215 C31,1.991 30.009,1 28.785,1"/>
  </g>
</svg>
