<?xml version="1.0" encoding="UTF-8"?>
<!DOCTYPE svg PUBLIC "-//W3C//DTD SVG 1.1//EN" "http://www.w3.org/Graphics/SVG/1.1/DTD/svg11.dtd">
<svg version="1.1" xmlns="http://www.w3.org/2000/svg" xmlns:xlink="http://www.w3.org/1999/xlink" x="0" y="0" width="145" height="144" viewBox="0, 0, 145, 144">
  <defs>
    <clipPath id="Clip_1">
      <path d="M0.498,0.03 L144.502,0.03 L144.502,143.97 L0.498,143.97 z"/>
    </clipPath>
  </defs>
  <g id="Layer_1">
    <g clip-path="url(#Clip_1)">
      <path d="M123.23,122.758 L101.582,122.758 L101.582,85.195 C101.582,74.113 96.871,70.695 90.794,70.695 C84.371,70.695 78.072,75.529 78.072,85.471 L78.072,122.758 L56.423,122.758 L56.423,53.985 L77.243,53.985 L77.243,63.513 L77.519,63.513 C79.614,59.279 86.926,52.051 98.096,52.051 C110.176,52.051 123.23,59.217 123.23,80.223 L123.23,122.758 z M32.594,44.402 C25.7,44.402 20.113,39.156 20.113,31.976 C20.113,24.796 25.7,19.544 32.594,19.544 C39.487,19.544 45.075,24.796 45.075,31.976 C45.075,39.156 39.487,44.402 32.594,44.402 z M21.77,53.932 L43.419,53.932 L43.419,122.706 L21.77,122.706 z M133.872,0.03 L11.128,0.03 C5.257,0.03 0.498,4.789 0.498,10.66 L0.498,133.4 C0.498,139.271 5.257,144.03 11.128,144.03 L133.872,144.03 C139.743,144.03 144.502,139.271 144.502,133.4 L144.502,10.66 C144.502,4.789 139.743,0.03 133.872,0.03" fill="#000000"/>
    </g>
  </g>
</svg>
