<svg xmlns="http://www.w3.org/2000/svg" viewBox="0, 0, 32, 32">
  <symbol id="email" viewBox="0, 0, 32, 32">
    <path d="M8,4.506 C8,4.229 8.229,4 8.506,4 L23.506,4 C23.783,4 24,4.229 24,4.506 L24,17.036 L26,15.422 L26,4 C26,2.892 25.108,2 24,2 L8,2 C6.892,2 6,2.892 6,4 L6,15.422 L8,17.036 L8,4.506 z"/>
    <path d="M17.53,8.012 C17.133,7.952 16.759,7.916 16.422,7.916 C15.578,7.916 14.892,8.169 14.373,8.675 C13.855,9.181 13.59,9.843 13.59,10.663 C13.59,11.386 13.795,11.952 14.193,12.373 C14.59,12.795 15.145,13 15.831,13 C16.482,13 17.024,12.747 17.446,12.241 L17.53,12.241 C17.627,12.458 17.795,12.639 18.012,12.783 C18.241,12.916 18.494,12.988 18.783,12.988 C19.217,12.988 19.602,12.855 19.928,12.59 C20.253,12.325 20.506,11.964 20.687,11.494 C20.867,11.024 20.952,10.518 20.952,9.952 C20.952,9.108 20.759,8.361 20.398,7.711 C20.024,7.072 19.506,6.566 18.831,6.217 C18.157,5.867 17.386,5.687 16.53,5.687 C15.518,5.687 14.614,5.916 13.831,6.361 C13.048,6.807 12.446,7.434 12.024,8.217 C11.602,9 11.386,9.88 11.386,10.843 C11.386,12.229 11.795,13.313 12.627,14.096 C13.458,14.88 14.614,15.265 16.096,15.265 C17.12,15.265 18.048,15.084 18.88,14.735 L18.88,13.614 C18.398,13.783 17.904,13.916 17.41,14.012 C16.916,14.096 16.458,14.145 16.048,14.145 C14.952,14.145 14.12,13.855 13.542,13.277 C12.964,12.699 12.675,11.867 12.675,10.795 C12.675,9.988 12.831,9.289 13.145,8.675 C13.458,8.072 13.904,7.602 14.482,7.277 C15.072,6.952 15.759,6.795 16.542,6.795 C17.157,6.795 17.699,6.928 18.169,7.181 C18.651,7.434 19.012,7.807 19.277,8.289 C19.542,8.771 19.675,9.325 19.675,9.952 C19.675,10.542 19.602,11.024 19.458,11.386 C19.301,11.747 19.108,11.928 18.855,11.928 C18.566,11.928 18.41,11.651 18.398,11.108 L18.53,8.241 C18.265,8.157 17.94,8.072 17.53,8.012 z M17.12,10.361 C17.072,10.916 16.964,11.313 16.783,11.566 C16.59,11.819 16.325,11.94 15.976,11.94 C15.301,11.94 14.964,11.518 14.964,10.699 C14.964,10.169 15.096,9.747 15.373,9.446 C15.639,9.145 16.024,8.988 16.518,9.012 C16.771,9.012 16.988,9.024 17.193,9.072 L17.12,10.361 z"/>
    <path d="M30.976,26 L30.976,15 C30.976,14.06 30.53,13.169 29.771,12.602 L26.976,10.506 L26.976,13.41 L28.434,14.53 C28.578,14.651 28.675,14.819 28.675,15 L22.12,20.217 L25.976,23.518 C26.157,23.663 26.253,23.892 26.253,24.12 C26.253,24.313 26.181,24.494 26.06,24.639 C25.916,24.819 25.687,24.916 25.458,24.916 C25.265,24.916 25.084,24.843 24.94,24.723 L17.94,18.723 C17.373,18.241 16.687,18 15.988,18 C15.289,18 14.602,18.241 14.036,18.723 L7.036,24.723 C6.892,24.843 6.711,24.916 6.518,24.916 C6.289,24.916 6.072,24.819 5.916,24.639 C5.795,24.494 5.723,24.313 5.723,24.12 C5.723,23.892 5.819,23.675 6,23.518 L9.855,20.217 L3.301,15 C3.313,14.807 3.398,14.639 3.542,14.53 L5,13.41 L5,10.506 L2.205,12.602 C1.446,13.169 1,14.06 1,15 L1,26 C1,27.651 2.337,29 4,29 L28,29 C29.651,29 31,27.651 31,26 L30.976,26 z"/>
  </symbol>
  <symbol id="github" viewBox="0, 0, 32, 32">
    <path d="M15.999,1 C7.716,1 1,7.716 1,16 C1,22.628 5.298,28.249 11.258,30.234 C12.009,30.371 12.282,29.908 12.282,29.51 C12.282,29.155 12.269,28.211 12.262,26.959 C8.09,27.865 7.209,24.948 7.209,24.948 C6.527,23.216 5.543,22.755 5.543,22.755 C4.181,21.824 5.647,21.842 5.647,21.842 C7.152,21.949 7.944,23.388 7.944,23.388 C9.282,25.68 11.455,25.018 12.31,24.635 C12.446,23.666 12.833,23.004 13.262,22.63 C9.931,22.251 6.429,20.964 6.429,15.216 C6.429,13.579 7.014,12.24 7.974,11.191 C7.819,10.812 7.304,9.287 8.12,7.221 C8.12,7.221 9.38,6.818 12.245,8.759 C13.441,8.427 14.725,8.26 16,8.254 C17.274,8.26 18.558,8.427 19.756,8.759 C22.619,6.818 23.876,7.221 23.876,7.221 C24.695,9.287 24.18,10.812 24.026,11.191 C24.987,12.24 25.568,13.579 25.568,15.216 C25.568,20.979 22.06,22.247 18.719,22.618 C19.257,23.081 19.737,23.996 19.737,25.396 C19.737,27.4 19.719,29.018 19.719,29.51 C19.719,29.912 19.989,30.378 20.75,30.232 C26.706,28.244 31,22.626 31,16 C31,7.716 24.283,1 15.999,1"/>
  </symbol>
  <symbol id="linkedin" viewBox="0, 0, 32, 32">
    <path d="M26.568,26.568 L22.059,26.568 L22.059,18.742 C22.059,16.434 21.077,15.721 19.811,15.721 C18.473,15.721 17.161,16.729 17.161,18.8 L17.161,26.568 L12.651,26.568 L12.651,12.24 L16.988,12.24 L16.988,14.225 L17.046,14.225 C17.482,13.343 19.005,11.837 21.332,11.837 C23.849,11.837 26.568,13.33 26.568,17.706 L26.568,26.568 z M7.686,10.244 C6.25,10.244 5.086,9.151 5.086,7.655 C5.086,6.159 6.25,5.065 7.686,5.065 C9.122,5.065 10.287,6.159 10.287,7.655 C10.287,9.151 9.122,10.244 7.686,10.244 z M5.432,12.229 L9.942,12.229 L9.942,26.557 L5.432,26.557 z M28.785,1 L3.215,1 C1.991,1 1,1.991 1,3.215 L1,28.785 C1,30.008 1.991,30.999 3.215,30.999 L28.785,30.999 C30.009,30.999 31,30.008 31,28.785 L31,3.215 C31,1.991 30.009,1 28.785,1"/>
  </symbol>
  <symbol id="website" viewBox="0, 0, 32, 32">
    <path d="M16,1 C7.738,1 1,7.738 1,16 C1,24.308 7.738,31 16,31 C24.262,31 31,24.308 31,16 C31,7.738 24.262,1 16,1 z M15.908,2.8 L17.246,3.354 L16.6,4.877 C15.862,5.246 15.123,5.477 14.338,5.754 L13.877,6.585 L13.462,6.769 L12.862,5.615 L13.277,5.154 L13.277,4.692 L12.123,3.862 L12.492,3.538 L14.385,2.985 L15.908,2.8 z M12.308,2.892 L12.492,3.215 C12.123,3.354 11.8,3.492 11.431,3.631 L10.877,3.769 L10.646,4 L10,3.908 L10.138,3.723 L10.369,3.631 L10.785,3.4 L11.292,3.354 L11.615,2.985 L12.308,2.892 z M9.262,4.323 L9.538,4.785 L9.723,4.415 L10.185,4.323 L10.231,4.6 L11.2,4.692 L11.431,5.246 L12.031,5.477 L11.477,5.892 C11.154,5.662 10.785,5.477 10.462,5.246 L10,5.015 C9.769,5.154 9.585,5.338 9.354,5.477 L9.031,6.077 L8.569,6.077 L8.708,5.615 L8.154,6.169 L6.908,6.908 L7.046,7.415 L8.015,7.831 L8.154,8.477 L8.523,7.692 L9.031,7.508 L8.985,7.138 L9.585,6.169 L10.277,6.538 L10.185,7 L10.785,6.769 L11.062,7.323 L10.969,7.692 L11.338,7.831 L11.662,8.108 L11.523,8.431 L10.646,8.754 L10.046,8.754 L9.169,9.123 L10.554,9.123 L10.092,9.815 L9.215,10 L8.8,10.6 L8.062,10.877 L7.738,11.754 L6.769,12.585 L6.631,13.692 L6.077,13 L5.292,12.862 L5.154,13.231 L4.508,13.231 L3.815,13.785 L3.677,14.477 L3.723,15.123 L4.277,15.4 L4.646,15.262 L5.015,14.754 L5.385,14.754 C5.338,15.169 5.292,15.585 5.246,16 L5.892,15.954 L5.892,16.554 L6.077,17.154 C6.308,17.292 6.677,17.292 6.954,17.385 L6.954,17.246 L7.831,16.415 L8.708,17.062 L9.723,16.923 L10.138,18.031 L10.877,18.169 L11.292,19 C12.123,19.415 12.954,19.877 13.785,20.292 L13.692,21.123 L13.046,22 L13.138,23.2 L12.769,24.077 L11.985,24.262 L11.615,24.769 L11.754,25.138 L11.292,26.385 L10.646,26.662 L10.462,27.031 L10.092,27.446 L10.231,27.723 C10.231,27.723 10.092,27.815 10,27.862 C9.908,27.954 8.292,27.077 8.246,26.938 C8.2,26.8 8.246,26.8 8.246,26.8 L8.615,25.415 L8.2,24.769 L8.246,23.569 L7.877,23.015 L7,22.185 L6.077,20.523 L6.354,19.646 L6.215,19.415 L6.585,18.954 L6.954,17.846 L6.954,17.708 L6.631,17.569 L6.215,17.615 L5.523,17.108 L5.062,16.508 L4,16.231 L2.892,15.585 C2.892,15.585 2.431,14.892 2.431,14.754 C3.031,9.585 5.846,6.769 7.231,5.477 C7.323,5.431 7.785,5.338 7.785,5.338 L8.015,4.692 L8.431,4.738 L8.754,4.923 L8.708,5.569 L8.8,5.431 L9.215,5.062 L9.169,4.462 L9.262,4.323 L9.262,4.323 z M22.323,4.738 L22.969,4.969 L24.169,5.2 L23.892,5.569 L23.2,5.569 L23.892,6.262 L24.4,5.662 L24.538,5.385 C24.538,5.385 26.477,7.138 27.585,9.077 C28.692,11.015 29.246,13.277 29.246,13.738 L28.923,14.154 C28.692,13.877 28.415,13.646 28.138,13.415 L27.538,13.508 L27.077,12.862 L27.077,13.646 L27.492,13.969 L27.862,14.338 L28.231,13.831 C28.323,14.015 28.415,14.246 28.508,14.431 L28.508,15.031 L28.092,15.538 L27.215,16.138 L26.615,16.738 C26.892,16.738 27.169,16.646 27.492,16.6 L27.492,17.015 L26.846,18.538 L26.292,19.138 L25.831,20.108 L25.831,21.769 L25.969,22.415 L25.738,22.692 L25.231,23.062 L24.631,23.523 L25.092,24.077 L24.446,24.677 L24.585,25.046 L23.569,26.154 L22.923,26.154 L22.323,26.523 L22,26.523 L22,26.015 L21.862,25.138 C21.677,24.538 21.446,23.938 21.215,23.385 C21.215,22.969 21.215,22.554 21.262,22.138 L21.492,21.538 L21.123,20.846 L21.169,19.923 L20.708,19.323 L20.938,18.585 L20.523,18.123 L19.877,18.123 L19.646,17.892 L19,18.262 L18.677,17.985 L18.077,18.538 C17.662,18.031 17.2,17.523 16.738,17.062 L16.185,15.862 L16.646,15.169 L16.415,14.846 L16.969,13.554 C17.431,13 17.938,12.446 18.4,11.892 L19.277,11.662 L20.246,11.523 L20.892,11.708 L21.815,12.631 L22.138,12.262 L22.646,12.123 L23.523,12.446 L24.169,12.446 L24.631,12.031 L24.815,11.754 L24.4,11.477 L23.615,11.431 C23.385,11.154 23.2,10.831 22.969,10.554 L22.738,10.646 L22.6,11.431 L22.138,10.877 L22.046,10.277 L21.492,9.908 L21.308,9.908 L21.862,10.508 L21.677,11.015 L21.262,11.154 L21.492,10.646 L21.077,10.369 L20.615,9.954 L19.877,10.092 L19.692,10.323 L19.277,10.646 L19.046,11.292 L18.4,11.615 L18.123,11.292 L17.8,11.292 L17.8,10.231 L18.446,9.908 L19,9.908 L18.862,9.492 L18.446,9.077 L19.138,8.938 L19.508,8.523 L19.646,8.246 L19.277,8.615 L18.677,8.754 L18.815,8.062 L18.815,7.554 L18.631,7.323 L18.631,7 L18.908,7 C19.046,7.323 19.231,7.6 19.323,7.877 L19.692,8.246 L19.877,8.015 L20.431,8.015 L20.292,7.6 L20.662,7.415 L20.662,7.877 L21.4,8.015 L22.185,7.369 L22.231,7.046 L22.877,6.585 C22.646,6.631 22.415,6.631 22.185,6.723 L22.185,6.215 L22.415,5.615 L22.185,5.615 L21.538,6.169 L21.4,6.446 L21.538,6.815 L21.308,7.508 L20.938,7.277 L20.569,6.908 L20.062,7.277 L19.831,6.354 L20.8,5.708 L20.8,5.385 L21.4,5.015 L22.323,4.738 L22.323,4.738 z M17.292,5.477 L17.615,5.846 L16.969,6.262 L16.6,6.031 L16.646,5.662 L16.831,5.708 L17.292,5.477 z M10.554,5.615 L11.062,5.846 L11.062,6.262 L10.646,6.262 L10.185,5.892 L10.554,5.615 z M18.4,7.646 L18.585,8.154 L18.169,8.385 L18.031,7.738 L18.4,7.646 L18.4,7.646 z M11.338,8.708 L11.846,9.031 L11.477,9.492 L11.338,8.708 z"/>
  </symbol>
  <symbol id="chh-seal" viewBox="0, 0, 100, 100">
    <path d="M52.521,1.064 C78.711,2.845 98.341,23.925 99,50 C99,77.061 77.061,99 50,99 C22.938,99 1,77.061 1,50 C1,22.938 22.938,1 50,1 L52.521,1.064 z M41,60.963 L41,87.925 C43.939,88.718 46.973,88.923 50,89 C53.048,89.088 56.032,88.532 59,87.925 L59,79.156 L41,60.963 z M14.42,34.098 C12.046,39.082 11.139,44.524 11,50 C11.096,63.945 18.655,77.313 31,84.018 L31,50.856 L14.42,34.098 z M69,63.362 L69,84.018 C73.353,81.737 77.056,78.418 80.167,74.649 L69,63.362 z M69,15.982 L69,49.144 L85.579,65.902 C87.954,60.918 88.861,55.476 89,50 C88.904,36.055 81.345,22.688 69,15.982 z M41,35.062 L41,46.745 L59,64.938 L59,53.255 L41,35.062 z M50,11 L50,11 C46.951,10.912 43.967,11.468 41,12.075 L41,20.843 L59,39.037 L59,12.075 C56.061,11.282 53.027,11.076 50,11 z M31,15.982 C26.647,18.263 22.943,21.581 19.833,25.351 L31,36.637 L31,15.982 z" />
  </symbol>
</svg>

